<?xml version="1.0" encoding="UTF-8" standalone="no"?>
<!-- Created with Inkscape (http://www.inkscape.org/) -->
<svg
   xmlns:svg="http://www.w3.org/2000/svg"
   xmlns="http://www.w3.org/2000/svg"
   version="1.0"
   width="195"
   height="48"
   id="svg2">
  <defs
     id="defs4">

	
		
	
		
	
	
		</defs>
  <g
     transform="translate(-88.880214,-588.57897)"
     id="layer1">
    <g
       transform="matrix(0.8688606,0,0,0.8688606,56.311551,567.93261)"
       id="g2390">
	<path
   d="M 44.011,43.012 C 44.011,43.012 44.06,29.039 60.975,29.039 C 85.251,29.039 84.859,63.95 61.466,63.95 C 56.71,63.95 53.156,62.749 50.975,61.004 L 50.975,74.933 L 44.011,74.933 L 44.011,43.012 z M 61.02,36.896 C 49.196,36.896 49.047,55.512 61.02,55.512 C 73.03,55.512 72.846,36.896 61.02,36.896 z"
   id="path3277"
   style="fill:#639442" />

	<path
   d="M 136.689,60.958 C 136.689,60.958 136.734,74.932 153.654,74.932 C 177.745,74.932 176.728,40.021 154.144,40.021 C 149.389,40.021 145.834,41.222 143.653,42.967 L 143.653,29.039 L 136.689,29.039 L 136.689,60.958 L 136.689,60.958 z M 153.699,67.074 C 141.852,67.074 141.717,48.458 153.699,48.458 C 165.707,48.458 165.564,67.074 153.699,67.074 z"
   id="path3279"
   style="fill:#639442" />

	<path
   d="M 91.544,63.771 L 91.553,41.807 L 99.488,41.807 L 99.536,63.771 C 99.536,63.771 100.86,68.473 106.5,68.473 C 112.051,68.473 114.491,63.771 114.491,63.771 L 114.536,41.807 L 121.857,41.807 L 121.857,63.771 C 121.857,63.771 120.133,75.245 106.857,75.245 C 93.492,75.244 91.544,63.771 91.544,63.771 z"
   id="path3281"
   style="fill:#639442" />

	<path
   d="M 184.002,30.021 L 191.948,30.021 L 191.947,74.932 L 184.002,74.932 L 184.002,30.021 z"
   id="path3283"
   style="fill:#639442" />

	<path
   d="M 206.322,41.984 L 214.269,41.984 L 214.269,74.931 L 206.322,74.931 L 206.322,41.984 z"
   id="path3285"
   style="fill:#639442" />

	
		<path
   d="M 215.53572,32.544643 A 4.8660712,4.8660712 0 1 1 205.80358,32.544643 A 4.8660712,4.8660712 0 1 1 215.53572,32.544643 z"
   id="path3287"
   style="fill:#639442" />

	<path
   d="M 237.006,58.034 L 227.026,42.074 L 235.956,42.074 L 240.509,50.021 L 245.019,42.074 L 252.964,42.074 L 244.974,58.012 L 254.822,74.932 L 246.938,74.932 L 241.513,66.002 L 236.938,74.932 L 228.032,74.932 L 237.006,58.034 z"
   id="path3289"
   style="fill:#639442" />

</g>
  </g>
</svg>
